HIERARCHY
ROOT Hips
{
 OFFSET 0.000000 0.000000 0.000000
 CHANNELS 6 Xposition Yposition Zposition Yrotation Xrotation Zrotation
 JOINT Chest
 {
  OFFSET 0.000000 9.585900 0.002600
  CHANNELS 3 Yrotation Xrotation Zrotation
  JOINT Chest2
  {
   OFFSET 0.000000 9.601200 -0.005300
   CHANNELS 3 Yrotation Xrotation Zrotation
   JOINT Chest3
   {
    OFFSET 0.000000 9.561800 0.000000
    CHANNELS 3 Yrotation Xrotation Zrotation
    JOINT Chest4
    {
     OFFSET 0.000000 9.552100 0.000000
     CHANNELS 3 Yrotation Xrotation Zrotation
     JOINT Neck
     {
      OFFSET 0.000000 14.453000 0.000000
      CHANNELS 3 Yrotation Xrotation Zrotation
      JOINT Head
      {
       OFFSET 0.000000 8.936500 -0.011300
       CHANNELS 3 Yrotation Xrotation Zrotation
       End Site
       {
        OFFSET 0.000000 17.073600 -0.006000
       }
      }
     }
     JOINT RightCollar
     {
      OFFSET -2.921100 9.558500 0.000000
      CHANNELS 3 Yrotation Xrotation Zrotation
      JOINT RightShoulder
      {
       OFFSET -13.519700 0.000000 0.000000
       CHANNELS 3 Yrotation Xrotation Zrotation
       JOINT RightElbow
       {
        OFFSET 0.000000 -29.696600 0.000000
        CHANNELS 3 Yrotation Xrotation Zrotation
        JOINT RightWrist
        {
         OFFSET 0.000000 -24.004700 0.000000
         CHANNELS 3 Yrotation Xrotation Zrotation
         End Site
         {
          OFFSET 0.000000 -17.728500 0.000000
         }
        }
       }
      }
     }
     JOINT LeftCollar
     {
      OFFSET 2.921100 9.558500 0.000000
      CHANNELS 3 Yrotation Xrotation Zrotation
      JOINT LeftShoulder
      {
       OFFSET 13.519700 0.000000 0.000000
       CHANNELS 3 Yrotation Xrotation Zrotation
       JOINT LeftElbow
       {
        OFFSET 0.000000 -29.696600 0.000000
        CHANNELS 3 Yrotation Xrotation Zrotation
        JOINT LeftWrist
        {
         OFFSET 0.000000 -24.004700 0.000000
         CHANNELS 3 Yrotation Xrotation Zrotation
         End Site
         {
          OFFSET 0.000000 -17.728500 0.000000
         }
        }
       }
      }
     }
    }
   }
  }
 }
 JOINT RightHip
 {
  OFFSET -7.771700 -0.012900 -0.001300
  CHANNELS 3 Yrotation Xrotation Zrotation
  JOINT RightKnee
  {
   OFFSET 0.000000 -40.869800 0.001200
   CHANNELS 3 Yrotation Xrotation Zrotation
   JOINT RightAnkle
   {
    OFFSET 0.000000 -39.717900 0.002100
    CHANNELS 3 Yrotation Xrotation Zrotation
    JOINT RightToe
    {
     OFFSET 0.000000 -4.965400 11.033500
     CHANNELS 3 Yrotation Xrotation Zrotation
     End Site
     {
      OFFSET 0.000000 -1.423100 5.872300
     }
    }
   }
  }
 }
 JOINT LeftHip
 {
  OFFSET 7.771700 -0.012900 -0.001300
  CHANNELS 3 Yrotation Xrotation Zrotation
  JOINT LeftKnee
  {
   OFFSET 0.000000 -40.869800 0.001200
   CHANNELS 3 Yrotation Xrotation Zrotation
   JOINT LeftAnkle
   {
    OFFSET 0.000000 -39.717900 0.002100
    CHANNELS 3 Yrotation Xrotation Zrotation
    JOINT LeftToe
    {
     OFFSET 0.000000 -4.965400 11.033500
     CHANNELS 3 Yrotation Xrotation Zrotation
     End Site
     {
      OFFSET 0.000000 -1.423100 5.872300
     }
    }
   }
  }
 }
}
MOTION
Frames: 7
Frame Time: 0.008333
0.000000 85.388000 0.000000 0.000000 -5.767877 0.000000 0.000000 11.653817 0.000000 0.000000 -5.885947 0.000000 0.000000 -0.000000 0.000000 0.000000 -0.000000 0.000000 0.000000 12.528835 0.000000 0.000000 0.711642 0.000000 0.000000 -0.000000 0.000000 0.000000 0.000000 -90.000000 0.000000 -2.309062 0.000000 0.000000 2.309062 0.000000 0.000000 -0.000000 0.000000 0.000000 -0.000000 90.000000 0.000000 -2.309062 0.000000 0.000000 2.309062 0.000000 0.000000 8.520406 0.000000 0.000000 1.905762 0.000000 -0.000000 -4.658285 0.000000 0.000000 -0.000000 0.000000 0.000000 8.520406 0.000000 0.000000 1.905762 0.000000 -0.000000 -4.658285 0.000000 0.000000 -0.000000 0.000000
-255.912739 57.107725 154.618090 -179.661461 -40.677625 -1.231648 0.930978 21.939220 2.891845 0.085260 3.046126 0.452225 0.127968 4.947264 0.758549 0.850940 18.588415 2.994130 -3.181600 18.881209 -2.567452 -5.016177 -0.759750 -3.697480 3.288963 -2.811797 -1.864394 10.739599 -20.556299 -24.173073 -138.475894 -77.327439 167.276748 3.233562 19.265255 11.500050 -6.945807 -3.180023 -4.257569 3.774233 -11.529670 0.994884 -75.349422 -81.420918 40.994903 -15.204394 11.337987 -10.041434 5.513761 -34.826772 -9.370595 -10.769288 62.825734 -11.599417 5.765086 30.098907 3.291420 -0.598566 -16.026744 5.998335 -7.938325 -33.629251 -1.933277 29.169497 63.823198 27.948967 -13.051005 11.446609 -3.415958 0.216746 0.370495 0.083783
-255.890328 57.109637 154.593072 -179.666099 -40.629115 -1.227112 0.944830 21.886759 2.880556 0.088598 3.037537 0.448546 0.149681 4.909275 0.728041 0.851527 18.539961 2.958837 -3.085446 18.637104 -2.419922 -4.885217 -1.209838 -3.452342 3.295346 -2.762019 -1.821547 11.697681 -20.593788 -24.783807 -156.064202 -79.373631 -174.379131 3.470946 18.753789 6.782077 -6.944447 -3.212632 -4.271526 3.430413 -11.642560 1.072041 -74.595975 -81.544417 39.982828 -15.034832 11.130125 -9.619704 5.515718 -34.883844 -9.355891 -10.803557 62.867117 -11.639609 5.768194 30.074437 3.278207 -0.599470 -16.051294 6.006089 -7.940838 -33.678945 -1.918871 29.203983 63.865486 27.994624 -13.027685 11.392683 -3.411849 0.196797 0.392873 0.080010
-255.857548 57.111510 154.565199 -179.673951 -40.568078 -1.256485 1.002622 21.825132 2.905059 0.071114 3.025932 0.457868 0.189083 4.883658 0.697504 0.866613 18.495577 2.926494 -2.996283 18.390887 -2.267178 -4.769427 -1.663859 -3.195432 3.273527 -2.702434 -1.777642 12.631119 -20.604440 -25.258676 -177.349577 -80.068431 -152.469005 4.410357 17.677102 2.882946 -6.955857 -3.265072 -4.273912 3.116832 -11.757958 1.157523 -73.310861 -81.703868 38.424433 -14.820362 10.927060 -9.086248 5.504681 -34.956074 -9.303329 -10.844518 62.911471 -11.678686 5.810042 30.038253 3.315330 -0.630915 -16.062243 5.982491 -7.971094 -33.738192 -1.847996 29.222365 63.919445 28.016917 -12.972062 11.365162 -3.384913 0.147991 0.376683 0.057974
-255.829677 57.116515 154.531574 -179.603006 -40.528249 -1.287816 1.077431 21.815704 2.885366 0.080050 2.991860 0.444217 0.142089 4.862091 0.724813 0.897628 18.457729 2.898955 -2.914914 18.142923 -2.109470 -4.670320 -2.121153 -2.926886 3.225342 -2.632523 -1.728222 13.542503 -20.587235 -25.595491 163.592498 -79.364251 -132.842464 6.165042 16.352423 0.043093 -6.987007 -3.332237 -4.266673 2.824179 -11.884410 1.248156 -71.531581 -81.884690 36.378071 -14.579014 10.776983 -8.475795 5.466093 -35.001348 -9.321424 -10.758249 63.011371 -11.583621 5.749206 29.935451 3.285937 -0.640898 -16.044043 5.985782 -8.057933 -33.794784 -1.802218 29.236978 63.997981 28.001556 -12.970028 11.336033 -3.387968 0.150453 0.362276 0.061311
-255.804199 57.117066 154.502261 -179.551332 -40.445605 -1.279338 1.100771 21.758186 2.845549 0.086806 2.979473 0.438466 0.108020 4.841062 0.735359 0.974569 18.430767 2.850957 -2.837704 17.893244 -1.950852 -4.579910 -2.581685 -2.655038 3.167325 -2.550238 -1.676532 14.421651 -20.534747 -25.800207 150.358053 -77.961779 -119.069991 8.114854 14.890151 -1.643932 -7.026618 -3.407263 -4.255343 2.538538 -12.028184 1.342265 -69.271023 -82.025674 33.945838 -14.398513 10.904716 -7.658156 5.483413 -35.097273 -9.362299 -10.758424 63.098329 -11.582928 5.686042 29.890865 3.253774 -0.638133 -16.062531 6.004961 -8.100305 -33.890561 -1.801989 29.235172 64.044114 27.983190 -12.955074 11.338191 -3.381797 0.134811 0.342008 0.057294
-255.776608 57.115589 154.475346 -179.523039 -40.346474 -1.262931 1.142395 21.688454 2.817748 0.093409 2.970301 0.433715 0.078166 4.816628 0.740607 1.048513 18.419622 2.814638 -2.760065 17.642298 -1.797388 -4.487716 -3.044610 -2.392512 3.119040 -2.454291 -1.629894 15.226927 -20.435839 -25.894138 141.945490 -76.809706 -110.142275 9.138784 13.170113 -2.564800 -7.058526 -3.481762 -4.247349 2.242917 -12.189795 1.436046 -66.928307 -81.890105 31.700735 -14.491089 11.598695 -6.579879 5.558377 -35.221212 -9.394401 -10.874037 63.184562 -11.680981 5.618417 29.892703 3.209932 -0.599722 -16.123608 6.035132 -8.128347 -34.001562 -1.789997 29.223173 64.091794 27.957312 -12.935678 11.336558 -3.372875 0.121095 0.319556 0.050019
